<?xml version="1.0" encoding="UTF-8" standalone="no"?>
<!-- Created with Inkscape (http://www.inkscape.org/) -->

<svg
   xmlns:dc="http://purl.org/dc/elements/1.1/"
   xmlns:cc="http://creativecommons.org/ns#"
   xmlns:rdf="http://www.w3.org/1999/02/22-rdf-syntax-ns#"
   xmlns:svg="http://www.w3.org/2000/svg"
   xmlns="http://www.w3.org/2000/svg"
   xmlns:sodipodi="http://sodipodi.sourceforge.net/DTD/sodipodi-0.dtd"
   xmlns:inkscape="http://www.inkscape.org/namespaces/inkscape"
   width="444.76608"
   height="190"
   id="svg2"
   version="1.1"
   inkscape:version="0.48.5 r10040"
   sodipodi:docname="Nouveau document 1">
  <defs
     id="defs4" />
  <sodipodi:namedview
     id="base"
     pagecolor="#ffffff"
     bordercolor="#666666"
     borderopacity="1.0"
     inkscape:pageopacity="0.0"
     inkscape:pageshadow="2"
     inkscape:zoom="0.98994949"
     inkscape:cx="194.6463"
     inkscape:cy="81.297173"
     inkscape:document-units="px"
     inkscape:current-layer="layer1"
     showgrid="false"
     showguides="true"
     inkscape:guide-bbox="true"
     fit-margin-left="5"
     fit-margin-top="5"
     fit-margin-bottom="5"
     fit-margin-right="5"
     inkscape:window-width="1366"
     inkscape:window-height="749"
     inkscape:window-x="0"
     inkscape:window-y="0"
     inkscape:window-maximized="0">
    <inkscape:grid
       type="xygrid"
       id="grid2985"
       empspacing="5"
       visible="true"
       enabled="true"
       snapvisiblegridlinesonly="true"
       originx="-34px"
       originy="-494.98718px" />
  </sodipodi:namedview>
  <metadata
     id="metadata7">
    <rdf:RDF>
      <cc:Work
         rdf:about="">
        <dc:format>image/svg+xml</dc:format>
        <dc:type
           rdf:resource="http://purl.org/dc/dcmitype/StillImage" />
        <dc:title></dc:title>
      </cc:Work>
    </rdf:RDF>
  </metadata>
  <g
     inkscape:label="Calque 1"
     inkscape:groupmode="layer"
     id="layer1"
     transform="translate(-34,-367.375)">
    <path
       style="fill:none;stroke:#000000;stroke-width:2;stroke-linecap:butt;stroke-linejoin:miter;stroke-miterlimit:4;stroke-opacity:1;stroke-dasharray:none"
       d="m 40,392.36218 40,140 40,-140"
       id="path2989"
       inkscape:connector-curvature="0" />
    <path
       style="font-size:medium;font-style:normal;font-variant:normal;font-weight:normal;font-stretch:normal;text-indent:0;text-align:start;text-decoration:none;line-height:normal;letter-spacing:normal;word-spacing:normal;text-transform:none;direction:ltr;block-progression:tb;writing-mode:lr-tb;text-anchor:start;baseline-shift:baseline;color:#000000;fill:#000000;fill-opacity:1;stroke:none;stroke-width:2;marker:none;visibility:visible;display:inline;overflow:visible;enable-background:accumulate;font-family:Sans;-inkscape-font-specification:Sans"
       d="m 146.96875,372.375 c -3.85821,0 -6.96875,3.07929 -6.96875,6.9375 l 0,166.09375 c 0,3.85821 3.11054,6.96875 6.96875,6.96875 l 226.0625,0 c 3.85821,0 6.96875,-3.11054 6.96875,-6.96875 l 0,-166.09375 c 0,-3.85821 -3.11054,-6.9375 -6.96875,-6.9375 l -226.0625,0 z m 53.03125,19 c 10.68196,0 21.23026,7.12952 29.15625,21 7.61466,13.32565 11.84375,31.28351 11.84375,50 l 0,1 -1,0 -1,0 -77.9375,0 c 0.13992,17.38897 3.95436,34.70582 11.46875,47.90625 l 0.0625,0.0937 c 7.69498,13.46622 17.61443,20 27.40625,20 9.79182,0 19.71127,-6.53378 27.40625,-20 l 0.5,-0.875 1.75,1 -0.5,0.84375 C 221.23026,526.21423 210.68196,533.375 200,533.375 c -10.68196,0 -21.23026,-7.16077 -29.15625,-21.03125 -15.84065,-27.72123 -15.84942,-72.1612 -0.0312,-99.90625 l 0.0312,-0.0625 c 7.92599,-13.87048 18.47429,-21 29.15625,-21 z m 79,0 1,0 40,0 c 20.33333,0 30.78699,10.29274 35.90625,20.53125 C 361.0255,422.14476 361,432.375 361,432.375 l 0,100 -2,0 0,-100 c 0,0 -0.0255,-9.80101 -4.90625,-19.5625 C 349.21301,403.05101 339.66667,393.375 320,393.375 l -39,0 0,139 -2,0 0,-140 0,-1 z m -79,2 c -9.79182,0 -19.71127,6.53378 -27.40625,20 -7.55004,13.21256 -11.38686,30.56919 -11.53125,48 l 77.90625,0 c -0.14985,-18.05062 -4.30861,-35.30569 -11.5625,-48 -7.69498,-13.46622 -17.61443,-20 -27.40625,-20 z"
       id="path2991"
       inkscape:connector-curvature="0" />
    <path
       sodipodi:type="arc"
       style="fill:none;stroke:#000000;stroke-width:2;stroke-linecap:square;stroke-miterlimit:4;stroke-opacity:1;stroke-dasharray:none"
       id="path2997"
       sodipodi:cx="440"
       sodipodi:cy="462.36218"
       sodipodi:rx="40"
       sodipodi:ry="70"
       d="m 468.28427,511.85966 c -15.62097,27.3367 -40.94757,27.3367 -56.56854,0 -15.62097,-27.3367 -15.62097,-71.65825 0,-98.99495 15.62097,-27.3367 40.94757,-27.3367 56.56854,0 1.64656,2.88147 3.14619,6.00906 4.48181,9.34712"
       sodipodi:start="0.78539816"
       sodipodi:end="5.6723201"
       sodipodi:open="true" />
  </g>
</svg>
